<svg xmlns="http://www.w3.org/2000/svg" viewBox="0 0 1600 900" width="1600" height="900" role="img" aria-label="A code editor window"><defs><linearGradient id="s" x1="0" y1="0" x2="1" y2="1"><stop offset="0" stop-color="#171B21"/><stop offset="1" stop-color="#12151A"/></linearGradient><clipPath id="c"><rect x="352" y="150" width="1168" height="642"/></clipPath></defs><rect width="1600" height="900" fill="#12151A"/><rect x="80" y="60" width="1440" height="780" rx="18" fill="url(#s)" stroke="#252A32"/><g fill="#1C2027"><rect x="80" y="60" width="1440" height="48" rx="18"/><rect x="80" y="92" width="1440" height="16"/><rect x="80" y="108" width="256" height="732"/><rect x="80" y="792" width="1440" height="48"/></g><g fill="#252A32"><rect x="336" y="108" width="1" height="732"/><rect x="80" y="792" width="1440" height="1"/></g><rect x="352" y="150" width="44" height="642" fill="#15191F"/><g fill="#3A414B"><circle cx="140" cy="84" r="7"/><circle cx="164" cy="84" r="7"/></g><g clip-path="url(#c)"><g fill="#2E343D"><rect x="366" y="169" width="16" height="8" rx="4"/><rect x="366" y="211" width="16" height="8" rx="4"/><rect x="366" y="253" width="16" height="8" rx="4"/><rect x="366" y="295" width="16" height="8" rx="4"/><rect x="366" y="337" width="16" height="8" rx="4"/><rect x="366" y="379" width="16" height="8" rx="4"/><rect x="366" y="421" width="16" height="8" rx="4"/><rect x="366" y="463" width="16" height="8" rx="4"/><rect x="366" y="505" width="16" height="8" rx="4"/><rect x="366" y="547" width="16" height="8" rx="4"/><rect x="366" y="589" width="16" height="8" rx="4"/><rect x="366" y="631" width="16" height="8" rx="4"/><rect x="366" y="673" width="16" height="8" rx="4"/><rect x="366" y="715" width="16" height="8" rx="4"/><rect x="366" y="757" width="16" height="8" rx="4"/></g><g fill="#4C5560"><rect x="528" y="166" width="88" height="12" rx="6"/><rect x="721" y="208" width="199" height="12" rx="6"/><rect x="936" y="208" width="73" height="12" rx="6"/><rect x="610" y="376" width="64" height="12" rx="6"/><rect x="769" y="460" width="94" height="12" rx="6"/><rect x="420" y="502" width="183" height="12" rx="6"/><rect x="619" y="502" width="207" height="12" rx="6"/><rect x="492" y="544" width="171" height="12" rx="6"/><rect x="528" y="628" width="141" height="12" rx="6"/><rect x="812" y="628" width="89" height="12" rx="6"/><rect x="917" y="628" width="101" height="12" rx="6"/><rect x="692" y="670" width="83" height="12" rx="6"/><rect x="791" y="670" width="126" height="12" rx="6"/><rect x="492" y="712" width="98" height="12" rx="6"/></g><g fill="#333B45"><rect x="632" y="166" width="201" height="12" rx="6"/><rect x="420" y="208" width="165" height="12" rx="6"/><rect x="601" y="208" width="104" height="12" rx="6"/><rect x="420" y="250" width="147" height="12" rx="6"/><rect x="583" y="250" width="196" height="12" rx="6"/><rect x="795" y="250" width="139" height="12" rx="6"/><rect x="456" y="292" width="135" height="12" rx="6"/><rect x="607" y="292" width="85" height="12" rx="6"/><rect x="708" y="292" width="144" height="12" rx="6"/><rect x="868" y="292" width="195" height="12" rx="6"/><rect x="456" y="376" width="138" height="12" rx="6"/><rect x="420" y="418" width="160" height="12" rx="6"/><rect x="596" y="418" width="82" height="12" rx="6"/><rect x="694" y="418" width="114" height="12" rx="6"/><rect x="585" y="460" width="168" height="12" rx="6"/><rect x="679" y="544" width="171" height="12" rx="6"/><rect x="685" y="628" width="111" height="12" rx="6"/><rect x="528" y="670" width="148" height="12" rx="6"/><rect x="933" y="670" width="158" height="12" rx="6"/><rect x="606" y="712" width="103" height="12" rx="6"/><rect x="725" y="712" width="122" height="12" rx="6"/><rect x="641" y="754" width="163" height="12" rx="6"/></g><g fill="#FF4D3F" opacity="0.5"><rect x="420" y="460" width="149" height="12" rx="6"/><rect x="420" y="754" width="205" height="12" rx="6"/></g></g><g fill="#39404A"><rect x="210" y="76" width="104" height="16" rx="8"/><rect x="112" y="155" width="10" height="10" rx="2"/><rect x="136" y="199" width="10" height="10" rx="2"/><rect x="136" y="243" width="10" height="10" rx="2"/><rect x="112" y="287" width="10" height="10" rx="2"/><rect x="112" y="331" width="10" height="10" rx="2"/><rect x="136" y="375" width="10" height="10" rx="2"/><rect x="136" y="419" width="10" height="10" rx="2"/><rect x="112" y="463" width="10" height="10" rx="2"/><rect x="112" y="507" width="10" height="10" rx="2"/><rect x="136" y="551" width="10" height="10" rx="2"/></g><g fill="#2A3038"><rect x="334" y="76" width="78" height="16" rx="8"/><rect x="432" y="76" width="92" height="16" rx="8"/></g><g fill="#333A43"><rect x="130" y="155" width="150" height="10" rx="5"/><rect x="154" y="199" width="96" height="10" rx="5"/><rect x="154" y="243" width="150" height="10" rx="5"/><rect x="130" y="287" width="150" height="10" rx="5"/><rect x="130" y="331" width="96" height="10" rx="5"/><rect x="154" y="375" width="96" height="10" rx="5"/><rect x="154" y="419" width="110" height="10" rx="5"/><rect x="130" y="463" width="110" height="10" rx="5"/><rect x="130" y="507" width="96" height="10" rx="5"/><rect x="154" y="551" width="150" height="10" rx="5"/></g><g fill="#FF4D3F"><circle cx="116" cy="84" r="7"/><rect x="80" y="240" width="3" height="26"/><rect x="420" y="418" width="2" height="18"/><circle cx="118" cy="816" r="5"/></g><g fill="#2A3038"><rect x="230" y="810" width="52" height="10" rx="5"/><rect x="1394" y="810" width="86" height="10" rx="5"/></g><rect x="136" y="810" width="74" height="10" rx="5" fill="#333A43"/></svg>
